<?xml version="1.0" standalone="no"?>
<!DOCTYPE svg PUBLIC "-//W3C//DTD SVG 20010904//EN"
 "http://www.w3.org/TR/2001/REC-SVG-20010904/DTD/svg10.dtd">
<svg version="1.0" xmlns="http://www.w3.org/2000/svg"
 width="600.000000pt" height="600.000000pt" viewBox="0 0 600.000000 600.000000"
 preserveAspectRatio="xMidYMid meet">
<metadata>
Created by potrace 1.11, written by Peter Selinger 2001-2013
</metadata>
<g transform="translate(0.000000,600.000000) scale(0.100000,-0.100000)"
fill="#000000" stroke="none">
<path d="M1949 5706 c-1 -12 -2 -46 -4 -76 -2 -51 -5 -127 -21 -560 -5 -143
-10 -264 -13 -307 -1 -10 -128 -13 -600 -13 l-599 0 2 -282 1 -282 588 0 589
0 -7 -170 c-3 -94 -8 -216 -10 -271 -2 -55 -7 -170 -10 -255 -3 -85 -7 -213
-10 -285 -6 -149 -14 -382 -20 -535 -2 -58 -7 -188 -11 -290 -3 -102 -7 -202
-8 -222 -1 -43 -4 -44 -98 -43 l-67 1 4 -95 c2 -53 6 -143 10 -201 3 -58 7
-157 10 -220 3 -63 7 -151 9 -195 6 -108 18 -356 21 -430 1 -33 6 -59 12 -58
5 1 56 31 114 66 57 35 187 115 289 178 l185 114 388 -1 c213 0 387 2 387 6 0
4 11 67 25 141 13 74 26 145 28 159 3 14 22 108 42 210 21 102 38 190 39 195
19 95 97 405 134 535 17 59 21 65 43 61 21 -3 137 -45 194 -71 145 -64 277
-134 388 -206 90 -58 253 -183 290 -222 l28 -29 -128 -129 c-153 -154 -310
-301 -453 -424 -41 -36 -79 -70 -85 -76 -5 -6 -41 -37 -80 -70 -38 -32 -72
-61 -75 -64 -3 -3 -30 -25 -60 -50 -30 -25 -61 -50 -67 -57 -9 -7 -13 -42 -13
-101 l0 -89 138 1 137 1 5 -38 5 -37 27 33 c80 102 314 368 496 566 62 68 336
341 342 341 3 0 10 -4 16 -8 11 -7 158 -193 182 -228 130 -199 210 -348 275
-514 70 -177 72 -163 -18 -189 -71 -20 -291 -79 -325 -86 -8 -2 -87 -20 -175
-39 -88 -20 -169 -38 -180 -40 -92 -18 -295 -57 -315 -61 -14 -3 -63 -12 -110
-20 -47 -8 -94 -17 -105 -19 -11 -2 -41 -7 -67 -10 l-48 -7 0 -77 0 -77 397 2
398 1 145 47 c173 55 447 132 499 140 l37 5 12 -63 c7 -36 12 -74 12 -85 0
-43 17 -47 186 -46 l159 0 1 40 c0 21 -3 57 -7 79 -4 22 -10 56 -13 75 l-5 36
199 84 c158 68 199 89 200 104 0 10 -9 51 -20 90 -11 39 -25 88 -31 109 -10
38 -11 38 -52 33 -23 -3 -67 -8 -97 -11 -30 -4 -69 -8 -86 -10 -54 -7 -158
-18 -187 -19 -27 -1 -31 4 -76 119 -27 66 -58 142 -70 169 -12 27 -18 52 -14
56 4 4 78 62 163 130 85 68 159 127 164 131 7 6 -67 148 -113 218 -7 11 -39 1
-167 -48 -88 -34 -168 -66 -179 -71 -73 -34 -69 -35 -129 48 -30 42 -80 109
-111 149 l-56 71 83 114 c45 62 85 115 88 118 4 3 21 28 40 55 19 28 38 53 44
57 15 10 -172 191 -187 181 -7 -3 -61 -43 -122 -88 -60 -45 -136 -100 -167
-123 l-57 -42 -44 38 c-69 58 -83 69 -162 127 -40 30 -76 59 -79 63 -3 5 28
94 69 198 40 104 75 195 77 202 2 7 -17 25 -42 39 -25 14 -65 37 -91 53 -85
52 -77 55 -186 -82 -53 -68 -100 -125 -103 -128 -3 -3 -19 -22 -34 -42 -33
-44 -38 -45 -94 -18 -51 25 -193 82 -245 99 l-38 13 6 71 c4 39 8 78 10 86 3
17 13 106 20 181 3 25 7 57 10 71 5 20 1 28 -12 34 -45 18 -229 63 -235 57 -3
-4 -33 -68 -66 -142 -33 -74 -72 -162 -87 -196 l-27 -61 -47 9 c-71 14 -134
23 -256 36 -66 8 -65 6 -80 127 -4 28 -13 90 -21 138 -15 89 -21 127 -23 160
-1 15 -12 17 -91 17 l-90 0 -1 58 c-1 31 -3 77 -4 102 -1 25 -5 119 -9 210 -4
91 -9 201 -12 245 l-4 81 590 -1 590 0 0 28 c1 35 1 376 0 467 l0 70 -600 0
-600 0 -1 38 c0 20 -2 64 -4 97 -1 33 -6 157 -10 275 -4 118 -9 244 -10 280
-2 36 -4 113 -6 173 -1 59 -5 108 -8 108 -3 1 -115 3 -248 4 -240 2 -243 2
-244 -19z m856 -3000 c130 -13 175 -19 233 -32 35 -7 66 -15 69 -17 2 -3 -1
-25 -7 -48 -7 -24 -14 -52 -16 -62 -13 -69 -120 -423 -191 -632 -46 -137 -89
-267 -95 -287 -6 -21 -16 -38 -22 -38 -6 0 -46 25 -88 56 -73 51 -78 57 -79
92 0 20 -2 60 -4 87 -2 28 -6 127 -9 220 -4 94 -9 199 -11 235 -2 36 -7 149
-11 251 l-6 187 93 -4 c52 -2 117 -5 144 -8z"/>
<path d="M1039 3578 c-1 -18 -2 -53 -4 -78 -1 -25 -5 -108 -9 -185 -4 -77 -9
-167 -11 -200 -2 -33 -7 -114 -10 -180 -6 -130 -13 -247 -20 -365 -4 -76 -13
-242 -20 -380 -2 -41 -6 -122 -9 -180 -9 -160 -15 -276 -21 -380 -3 -52 -7
-140 -10 -195 -3 -55 -8 -136 -10 -180 -4 -82 -13 -239 -20 -355 -2 -36 -6
-126 -10 -200 -3 -74 -8 -147 -11 -162 -2 -16 -1 -28 3 -29 33 -4 432 -4 445
1 10 3 63 70 118 150 l101 145 -6 135 c-4 74 -8 167 -10 205 -2 39 -6 122 -10
185 -3 63 -7 156 -10 205 -8 146 -16 305 -20 385 -2 41 -6 127 -10 190 -3 63
-8 149 -10 190 -14 281 -17 342 -20 400 -2 36 -7 128 -11 205 -3 77 -7 163 -9
190 -1 28 -6 118 -10 200 -4 83 -9 170 -10 195 -1 25 -3 62 -4 83 l-1 37 -180
0 -180 0 -1 -32z"/>
<path d="M750 1732 c-25 -28 -37 -41 -154 -172 -33 -36 -78 -85 -100 -110 -23
-25 -75 -83 -116 -130 l-75 -85 2 -350 c0 -192 2 -357 2 -365 1 -13 30 -15
195 -15 107 0 197 3 200 6 6 6 11 72 21 264 3 66 8 149 10 185 2 36 6 121 10
190 4 69 8 156 10 194 22 382 23 416 21 416 0 0 -12 -13 -26 -28z"/>
<path d="M2262 1057 c-57 -34 -117 -70 -133 -79 -16 -10 -97 -60 -181 -111
-84 -52 -192 -117 -239 -146 l-87 -53 -101 -154 c-66 -100 -107 -154 -118
-155 -10 0 -330 0 -711 0 l-692 -1 0 -179 0 -179 3000 0 3000 0 0 179 0 179
-1270 -1 -1270 -2 1 238 c1 130 0 240 -3 243 -3 3 -67 5 -141 5 l-136 1 -3
136 -3 137 -405 2 -405 3 -103 -63z"/>
</g>
</svg>
